<svg width="25" height="24" viewBox="0 0 25 24" fill="none" xmlns="http://www.w3.org/2000/svg">
<path d="M6.5717 6.26794L7.0717 5.40192L6.5717 6.26794ZM5.20567 6.63397L4.33965 6.13397L4.33965 6.13397L5.20567 6.63397ZM4.20567 8.36602L3.33965 7.86602H3.33965L4.20567 8.36602ZM4.5717 9.73205L4.0717 10.5981H4.0717L4.5717 9.73205ZM4.5717 14.2679L4.0717 13.4019H4.0717L4.5717 14.2679ZM4.20567 15.634L5.0717 15.134H5.0717L4.20567 15.634ZM5.20567 17.366L4.33965 17.866H4.33965L5.20567 17.366ZM6.5717 17.732L7.0717 18.5981L6.5717 17.732ZM18.4281 17.732L17.9281 18.5981L17.9281 18.5981L18.4281 17.732ZM19.7941 17.366L18.9281 16.866L19.7941 17.366ZM20.7941 15.634L21.6602 16.134L20.7941 15.634ZM20.4281 14.2679L19.9281 15.134V15.134L20.4281 14.2679ZM20.4281 9.73205L20.9281 10.5981V10.5981L20.4281 9.73205ZM20.7941 8.36602L19.9281 8.86602L19.9281 8.86602L20.7941 8.36602ZM19.7941 6.63397L18.9281 7.13397L19.7941 6.63397ZM18.4281 6.26794L18.9281 7.13397L18.4281 6.26794ZM15.1511 6.61604L14.7087 7.51283L15.1511 6.61604ZM17.0117 7.08573L17.5117 7.95175L17.0117 7.08573ZM15.8357 7.01204L15.2791 7.84277L15.8357 7.01204ZM18.487 11.6035L17.4891 11.6686L18.487 11.6035ZM19.0115 10.5499L18.5115 9.68388L19.0115 10.5499ZM15.8357 16.988L15.2791 16.1572L15.8357 16.988ZM17.0117 16.9143L16.5117 17.7803L17.0117 16.9143ZM19.0115 13.4501L18.5115 14.3161L19.0115 13.4501ZM9.84867 17.384L10.2911 16.4872L9.84867 17.384ZM7.98814 16.9143L7.48814 16.0482L7.98814 16.9143ZM9.16406 16.988L8.60738 17.8187L9.16406 16.988ZM15.1511 17.384L15.5936 18.2808L15.1511 17.384ZM5.98827 10.5499L5.48827 11.4159L5.98827 10.5499ZM6.51279 11.6035L5.51492 11.5385L6.51279 11.6035ZM7.98815 7.08573L7.48815 7.95176L7.98815 7.08573ZM11.4999 4V4V2C10.3953 2 9.4999 2.89543 9.4999 4H11.4999ZM11.4999 5.63424V4H9.4999V5.63424H11.4999ZM9.72074 7.84277C9.90288 7.72073 10.0934 7.6104 10.2911 7.51283L9.40622 5.71924C9.12898 5.85603 8.86221 6.01056 8.60739 6.18131L9.72074 7.84277ZM6.0717 7.13397L7.48815 7.95176L8.48815 6.2197L7.0717 5.40192L6.0717 7.13397ZM6.0717 7.13397L7.0717 5.40192C6.11512 4.84963 4.89193 5.17738 4.33965 6.13397L6.0717 7.13397ZM5.0717 8.86602L6.0717 7.13397L4.33965 6.13397L3.33965 7.86602L5.0717 8.86602ZM5.0717 8.86602L5.0717 8.86602L3.33965 7.86602C2.78736 8.82261 3.11512 10.0458 4.0717 10.5981L5.0717 8.86602ZM6.48827 9.68388L5.0717 8.86602L4.0717 10.5981L5.48827 11.4159L6.48827 9.68388ZM7.49991 12C7.49991 11.8885 7.50354 11.778 7.51067 11.6686L5.51492 11.5385C5.50495 11.6912 5.4999 11.8451 5.4999 12H7.49991ZM7.51067 12.3314C7.50354 12.222 7.49991 12.1115 7.49991 12H5.4999C5.4999 12.1549 5.50495 12.3088 5.51491 12.4615L7.51067 12.3314ZM5.0717 15.134L6.48827 14.3161L5.48827 12.5841L4.0717 13.4019L5.0717 15.134ZM5.0717 15.134L5.0717 15.134L4.0717 13.4019C3.11512 13.9542 2.78736 15.1774 3.33965 16.134L5.0717 15.134ZM6.0717 16.866L5.0717 15.134L3.33965 16.134L4.33965 17.866L6.0717 16.866ZM6.0717 16.866L6.0717 16.866L4.33965 17.866C4.89193 18.8226 6.11512 19.1504 7.0717 18.5981L6.0717 16.866ZM7.48814 16.0482L6.0717 16.866L7.0717 18.5981L8.48814 17.7803L7.48814 16.0482ZM10.2911 16.4872C10.0934 16.3896 9.90287 16.2793 9.72074 16.1572L8.60738 17.8187C8.86221 17.9894 9.12898 18.144 9.40622 18.2808L10.2911 16.4872ZM11.4999 20V18.3658H9.4999V20H11.4999ZM11.4999 20H9.4999C9.4999 21.1046 10.3953 22 11.4999 22V20ZM13.4999 20H11.4999V22H13.4999V20ZM13.4999 20V22C14.6045 22 15.4999 21.1046 15.4999 20H13.4999ZM13.4999 18.3658V20H15.4999V18.3658H13.4999ZM15.2791 16.1572C15.0969 16.2793 14.9064 16.3896 14.7087 16.4872L15.5936 18.2808C15.8708 18.144 16.1376 17.9894 16.3924 17.8187L15.2791 16.1572ZM18.9281 16.866L17.5117 16.0482L16.5117 17.7803L17.9281 18.5981L18.9281 16.866ZM18.9281 16.866H18.9281L17.9281 18.5981C18.8847 19.1504 20.1079 18.8226 20.6602 17.866L18.9281 16.866ZM19.9281 15.134L18.9281 16.866L20.6602 17.866L21.6602 16.134L19.9281 15.134ZM19.9281 15.134V15.134L21.6602 16.134C22.2124 15.1774 21.8847 13.9542 20.9281 13.4019L19.9281 15.134ZM18.5115 14.3161L19.9281 15.134L20.9281 13.4019L19.5115 12.5841L18.5115 14.3161ZM17.4999 12C17.4999 12.1115 17.4963 12.222 17.4891 12.3314L19.4849 12.4615C19.4949 12.3088 19.4999 12.1549 19.4999 12H17.4999ZM17.4891 11.6686C17.4963 11.778 17.4999 11.8885 17.4999 12H19.4999C19.4999 11.8451 19.4949 11.6912 19.4849 11.5385L17.4891 11.6686ZM19.9281 8.86602L18.5115 9.68388L19.5115 11.4159L20.9281 10.5981L19.9281 8.86602ZM19.9281 8.86602L19.9281 8.86602L20.9281 10.5981C21.8847 10.0458 22.2124 8.82261 21.6602 7.86602L19.9281 8.86602ZM18.9281 7.13397L19.9281 8.86602L21.6602 7.86602L20.6602 6.13397L18.9281 7.13397ZM18.9281 7.13397V7.13397L20.6602 6.13397C20.1079 5.17738 18.8847 4.84963 17.9281 5.40192L18.9281 7.13397ZM17.5117 7.95175L18.9281 7.13397L17.9281 5.40192L16.5117 6.2197L17.5117 7.95175ZM14.7087 7.51283C14.9064 7.6104 15.0969 7.72072 15.2791 7.84277L16.3924 6.18131C16.1376 6.01056 15.8708 5.85603 15.5936 5.71924L14.7087 7.51283ZM13.4999 4V5.63423H15.4999V4H13.4999ZM13.4999 4H15.4999C15.4999 2.89543 14.6045 2 13.4999 2V4ZM11.4999 4H13.4999V2H11.4999V4ZM15.5936 5.71924C15.5508 5.69815 15.5229 5.67053 15.5091 5.65025C15.497 5.63248 15.4999 5.62788 15.4999 5.63423H13.4999C13.4999 6.50299 14.0489 7.18731 14.7087 7.51283L15.5936 5.71924ZM16.5117 6.2197C16.5171 6.21655 16.5147 6.22132 16.4934 6.21972C16.4692 6.21789 16.4317 6.20762 16.3924 6.18131L15.2791 7.84277C15.8913 8.25303 16.7591 8.38623 17.5117 7.95175L16.5117 6.2197ZM19.4849 11.5385C19.4818 11.4913 19.4917 11.4537 19.5023 11.4318C19.5115 11.4126 19.517 11.4128 19.5115 11.4159L18.5115 9.68388C17.7601 10.1177 17.4412 10.9342 17.4891 11.6686L19.4849 11.5385ZM16.3924 17.8187C16.4317 17.7924 16.4692 17.7821 16.4934 17.7803C16.5147 17.7787 16.5171 17.7834 16.5117 17.7803L17.5117 16.0482C16.7591 15.6138 15.8913 15.747 15.2791 16.1572L16.3924 17.8187ZM19.5115 12.5841C19.517 12.5872 19.5115 12.5874 19.5023 12.5682C19.4917 12.5462 19.4818 12.5087 19.4849 12.4615L17.4891 12.3314C17.4412 13.0658 17.7601 13.8823 18.5115 14.3161L19.5115 12.5841ZM9.40622 18.2808C9.44898 18.3019 9.47687 18.3295 9.4907 18.3497C9.50282 18.3675 9.4999 18.3721 9.4999 18.3658H11.4999C11.4999 17.497 10.9509 16.8127 10.2911 16.4872L9.40622 18.2808ZM8.48814 17.7803C8.48268 17.7834 8.48515 17.7787 8.50637 17.7803C8.5306 17.7821 8.56812 17.7924 8.60738 17.8187L9.72074 16.1572C9.10851 15.747 8.24067 15.6138 7.48814 16.0482L8.48814 17.7803ZM15.4999 18.3658C15.4999 18.3721 15.497 18.3675 15.5091 18.3497C15.5229 18.3295 15.5508 18.3019 15.5936 18.2808L14.7087 16.4872C14.0489 16.8127 13.4999 17.497 13.4999 18.3658H15.4999ZM5.51491 12.4615C5.51799 12.5086 5.50809 12.5462 5.49753 12.5682C5.48827 12.5874 5.48285 12.5872 5.48827 12.5841L6.48827 14.3161C7.23966 13.8823 7.55858 13.0658 7.51067 12.3314L5.51491 12.4615ZM5.48827 11.4159C5.48286 11.4128 5.48827 11.4126 5.49753 11.4318C5.50809 11.4537 5.51799 11.4913 5.51492 11.5385L7.51067 11.6686C7.55858 10.9342 7.23967 10.1177 6.48827 9.68388L5.48827 11.4159ZM8.60739 6.18131C8.56813 6.20763 8.53061 6.21789 8.50638 6.21972C8.48516 6.22133 8.48269 6.21655 8.48815 6.2197L7.48815 7.95176C8.24068 8.38623 9.10852 8.25303 9.72074 7.84277L8.60739 6.18131ZM9.4999 5.63424C9.4999 5.62788 9.50282 5.63248 9.4907 5.65025C9.47687 5.67053 9.44898 5.69815 9.40622 5.71924L10.2911 7.51283C10.9509 7.18731 11.4999 6.50299 11.4999 5.63424H9.4999Z" fill="white"/>
<circle cx="12.5" cy="12" r="3" stroke="white" stroke-width="2" stroke-linecap="round" stroke-linejoin="round"/>
</svg>
