<svg width="25" height="24" viewBox="0 0 25 24" fill="none" xmlns="http://www.w3.org/2000/svg">
<path d="M9.57723 9.27855L15.2987 15L21.0201 9.27855C22.4564 7.84224 22.4564 5.51353 21.0201 4.07723C19.5838 2.64092 17.2551 2.64092 15.8188 4.07723L15.2987 4.59736L14.7785 4.07723C13.3422 2.64092 11.0135 2.64092 9.57723 4.07723C8.14092 5.51353 8.14092 7.84224 9.57723 9.27855Z" stroke="currentColor" stroke-width="2" stroke-linejoin="round"/>
<path d="M4.26034 16.4316L8.29868 20.4699L12.337 16.4316C13.3508 15.4178 13.3508 13.7741 12.337 12.7603C11.3232 11.7466 9.67958 11.7466 8.6658 12.7603L8.29868 13.1275L7.93156 12.7603C6.91778 11.7466 5.27412 11.7466 4.26034 12.7603C3.24655 13.7741 3.24655 15.4178 4.26034 16.4316Z" stroke="currentColor" stroke-width="2" stroke-linejoin="round"/>
</svg>
