<svg width="24" height="25" viewBox="0 0 24 25" fill="none" xmlns="http://www.w3.org/2000/svg">
<path d="M4 15.5V9.5C4 8.39543 4.89543 7.5 6 7.5H13C14.1046 7.5 15 8.39543 15 9.5V15.5C15 16.6046 14.1046 17.5 13 17.5H6C4.89543 17.5 4 16.6046 4 15.5Z" stroke="white" stroke-width="2" stroke-linecap="round" stroke-linejoin="round"/>
<path d="M18.3753 8.79976L15.3753 11.1998C15.1381 11.3895 15 11.6768 15 11.9806V13.0194C15 13.3232 15.1381 13.6105 15.3753 13.8002L18.3753 16.2002C19.0301 16.7241 20 16.2579 20 15.4194V9.58062C20 8.74212 19.0301 8.27595 18.3753 8.79976Z" stroke="white" stroke-width="2" stroke-linecap="round" stroke-linejoin="round"/>
</svg>
