<svg width="24" height="24" viewBox="0 0 24 24" fill="none" xmlns="http://www.w3.org/2000/svg">
<circle cx="12" cy="12" r="9" stroke="black" stroke-width="2" stroke-linecap="round" stroke-linejoin="round"/>
<path d="M13 3.0481C12.652 3.34099 12.3384 3.68664 12.0717 4.08265C10.5289 6.3729 11.1348 9.48019 13.4251 11.023C13.6058 11.1448 13.7917 11.2532 13.9815 11.3484C16 12.3612 16.7706 10.9962 17.8634 11.7323C18.5723 12.2099 18.7598 13.1716 18.2823 13.8805C17.7819 14.6234 17 15 17.1352 16.2168C17.2116 16.9036 17.6335 17.4954 18.1802 18" stroke="black" stroke-width="2" stroke-linecap="round" stroke-linejoin="round"/>
<path d="M4 9.28003C5.08188 9.54331 6.083 10.1678 6.80601 11.1259C7.57668 12.1472 7.89615 13.3684 7.79785 14.5504C7.74578 15.1764 8.15405 15.8083 8.6794 16.1526C8.93324 16.319 9.16323 16.5312 9.35655 16.7874C10.2126 17.9218 10.0418 19.511 9 20.4407" stroke="black" stroke-width="2" stroke-linecap="round" stroke-linejoin="round"/>
</svg>
