<svg width="24" height="24" viewBox="0 0 24 24" fill="none" xmlns="http://www.w3.org/2000/svg">
<path d="M9.07723 9.27855L14.7987 15L20.5201 9.27855C21.9564 7.84224 21.9564 5.51353 20.5201 4.07723C19.0838 2.64092 16.7551 2.64092 15.3188 4.07723L14.7987 4.59736L14.2785 4.07723C12.8422 2.64092 10.5135 2.64092 9.07723 4.07723C7.64092 5.51353 7.64092 7.84224 9.07723 9.27855Z" fill="#F75777"/>
<path d="M3.76034 16.4316L7.79868 20.4699L11.837 16.4316C12.8508 15.4178 12.8508 13.7741 11.837 12.7603C10.8232 11.7466 9.17958 11.7466 8.1658 12.7603L7.79868 13.1275L7.43156 12.7603C6.41778 11.7466 4.77412 11.7466 3.76034 12.7603C2.74655 13.7741 2.74655 15.4178 3.76034 16.4316Z" fill="#FBA8B0"/>
</svg>
